<svg width="188" height="188" viewBox="0 0 188 188" fill="none" xmlns="http://www.w3.org/2000/svg">
<path d="M94 15.6667C112.698 15.6667 130.63 23.0944 143.851 36.3157C157.072 49.537 164.5 67.469 164.5 86.1667V144.917C164.503 150.776 162.629 156.481 159.152 161.197C155.676 165.914 150.78 169.392 145.183 171.123C139.586 172.854 133.581 172.746 128.049 170.816C122.518 168.885 117.75 165.233 114.445 160.395C112.399 164.02 109.426 167.035 105.832 169.134C102.238 171.232 98.1503 172.338 93.9883 172.338C89.8262 172.338 85.7389 171.232 82.1445 169.134C78.5502 167.035 75.5778 164.02 73.5315 160.395C70.2965 165.118 65.6645 168.709 60.2852 170.666C54.9059 172.622 49.0491 172.846 43.5361 171.306C38.0231 169.766 33.1304 166.539 29.5442 162.077C25.958 157.616 23.8582 152.144 23.5392 146.429L23.5 144.909V86.1667C23.5 67.469 30.9277 49.537 44.149 36.3157C57.3703 23.0944 75.3022 15.6667 94 15.6667ZM125.333 101.833H109.667C109.685 105.899 108.122 109.812 105.308 112.746C102.495 115.681 98.6505 117.407 94.588 117.559C90.5254 117.712 86.5627 116.279 83.5369 113.564C80.5111 110.849 78.6592 107.064 78.3725 103.008L78.3333 101.833H62.6667L62.7058 103.4C63.1077 111.429 66.5801 118.996 72.4048 124.537C78.2296 130.077 85.961 133.167 94 133.167C102.039 133.167 109.77 130.077 115.595 124.537C121.42 118.996 124.892 111.429 125.294 103.4L125.333 101.833ZM94 54.8334C89.8449 54.8334 85.8601 56.484 82.922 59.4221C79.9839 62.3601 78.3333 66.345 78.3333 70.5001C78.3333 74.6551 79.9839 78.64 82.922 81.5781C85.8601 84.5162 89.8449 86.1667 94 86.1667C98.1551 86.1667 102.14 84.5162 105.078 81.5781C108.016 78.64 109.667 74.6551 109.667 70.5001C109.667 66.345 108.016 62.3601 105.078 59.4221C102.14 56.484 98.1551 54.8334 94 54.8334Z" fill="#6F6FC8"/>
</svg>
